<svg xmlns="http://www.w3.org/2000/svg" width="200" height="121" viewBox="0 0 200 121">
  <path id="Shape" d="M134.535,121a2.943,2.943,0,0,1-2.559-1.467l-1.961-3.391a21.2,21.2,0,0,1-3.78.338,21.587,21.587,0,0,1-3.8-.338l-1.96,3.391A2.943,2.943,0,0,1,117.917,121a3.049,3.049,0,0,1-1.051-.186,26.455,26.455,0,0,1-7.675-4.411,2.94,2.94,0,0,1-.669-3.722l1.96-3.391a20.332,20.332,0,0,1-3.8-6.5h-3.945a2.938,2.938,0,0,1-2.917-2.443,26.387,26.387,0,0,1,0-8.8,2.949,2.949,0,0,1,2.917-2.466h3.945a20.34,20.34,0,0,1,3.8-6.5l-1.96-3.391a2.938,2.938,0,0,1-.355-1.985,2.851,2.851,0,0,1,1.024-1.737,26.659,26.659,0,0,1,7.675-4.411,3.049,3.049,0,0,1,1.051-.186,2.943,2.943,0,0,1,2.559,1.467l1.96,3.39a21.443,21.443,0,0,1,7.579,0l1.961-3.39a2.943,2.943,0,0,1,2.559-1.467,3.049,3.049,0,0,1,1.051.186,26.438,26.438,0,0,1,7.674,4.411,2.94,2.94,0,0,1,.67,3.722l-1.96,3.391a20.32,20.32,0,0,1,3.8,6.5h3.946a2.938,2.938,0,0,1,2.917,2.443,26.385,26.385,0,0,1,0,8.8,2.949,2.949,0,0,1-2.917,2.466H145.77a20.333,20.333,0,0,1-3.8,6.5l1.96,3.391a2.938,2.938,0,0,1,.355,1.985,2.853,2.853,0,0,1-1.025,1.737,26.682,26.682,0,0,1-7.674,4.411A3.049,3.049,0,0,1,134.535,121Zm-8.3-33.651h0a8.7,8.7,0,0,0-7.766,4.828c-1.548,3.159-1.016,6.8,1.461,10a10.467,10.467,0,0,0,6.318,2.3,8.7,8.7,0,0,0,7.766-4.827c1.548-3.159,1.016-6.8-1.461-10a10.467,10.467,0,0,0-6.317-2.3ZM51.606,113.421a53.775,53.775,0,0,1-9.047-.765,5.7,5.7,0,0,1-4.782-5.6V99.093a41.442,41.442,0,0,1-13.126-7.517l-6.958,3.96a5.752,5.752,0,0,1-2.866.763,5.688,5.688,0,0,1-4.378-2.021C6.455,89.534,2.469,84.362.361,78.7a5.685,5.685,0,0,1,2.51-6.9l7.961-3.984a40.6,40.6,0,0,1,0-15.034L2.871,48.774A5.7,5.7,0,0,1,.343,45.789,5.573,5.573,0,0,1,.361,41.9c2.107-5.684,6.094-10.858,10.089-15.6a5.678,5.678,0,0,1,4.366-2.021,5.834,5.834,0,0,1,2.878.764l6.958,3.983A40.941,40.941,0,0,1,37.777,21.5V13.514a5.645,5.645,0,0,1,4.685-5.573,54.975,54.975,0,0,1,18.171-.023,5.7,5.7,0,0,1,4.782,5.6v7.968A41.442,41.442,0,0,1,78.541,29L85.5,25.014a5.752,5.752,0,0,1,2.867-.763,5.688,5.688,0,0,1,4.378,2.021,90.008,90.008,0,0,1,5.687,7.375,38.779,38.779,0,0,1,4.378,8.228,5.658,5.658,0,0,1-2.391,6.9L92.36,52.758a40.759,40.759,0,0,1,0,15.057l8.057,3.984a5.667,5.667,0,0,1,2.511,6.9c-2.143,5.778-6.381,11.083-10.185,15.6a5.679,5.679,0,0,1-4.367,2.021,5.822,5.822,0,0,1-2.877-.763l-6.957-3.983a40.965,40.965,0,0,1-13.126,7.517v7.967a5.672,5.672,0,0,1-4.711,5.6A54.647,54.647,0,0,1,51.606,113.421Zm0-70.274H51.6a20.911,20.911,0,0,0-12.622,4.605c-4.95,6.386-6.013,13.674-2.916,19.994a17.426,17.426,0,0,0,15.556,9.678,20.921,20.921,0,0,0,12.631-4.606c4.95-6.386,6.013-13.674,2.916-19.993A17.426,17.426,0,0,0,51.6,43.148Zm82.932,6.976a2.944,2.944,0,0,1-2.559-1.467l-1.961-3.391a21.115,21.115,0,0,1-3.78.338,21.618,21.618,0,0,1-3.8-.338l-1.96,3.391a2.944,2.944,0,0,1-2.559,1.467,3.049,3.049,0,0,1-1.051-.187,26.436,26.436,0,0,1-7.675-4.41,2.94,2.94,0,0,1-.669-3.723l1.96-3.39a20.347,20.347,0,0,1-3.8-6.5h-3.945a2.938,2.938,0,0,1-2.917-2.442,26.391,26.391,0,0,1,0-8.8,2.949,2.949,0,0,1,2.917-2.466h3.945a20.334,20.334,0,0,1,3.8-6.5l-1.96-3.39a2.94,2.94,0,0,1-.355-1.986A2.852,2.852,0,0,1,109.191,4.6a26.668,26.668,0,0,1,7.675-4.41A3.049,3.049,0,0,1,117.917,0a2.944,2.944,0,0,1,2.559,1.467l1.96,3.391a21.364,21.364,0,0,1,3.79-.338,21.655,21.655,0,0,1,3.789.338l1.961-3.391A2.944,2.944,0,0,1,134.535,0a3.049,3.049,0,0,1,1.051.187A26.477,26.477,0,0,1,143.26,4.6a2.941,2.941,0,0,1,.67,3.723l-1.96,3.39a20.322,20.322,0,0,1,3.8,6.5h3.946a2.938,2.938,0,0,1,2.917,2.442,26.385,26.385,0,0,1,0,8.8,2.949,2.949,0,0,1-2.917,2.466H145.77a20.329,20.329,0,0,1-3.8,6.5l1.96,3.39a2.939,2.939,0,0,1,.355,1.986,2.852,2.852,0,0,1-1.025,1.737,26.723,26.723,0,0,1-7.674,4.41A3.049,3.049,0,0,1,134.535,50.123Zm-8.313-33.635a8.685,8.685,0,0,0-7.754,4.827c-1.551,3.163-1.019,6.81,1.459,10.007a10.47,10.47,0,0,0,6.318,2.3A8.7,8.7,0,0,0,134.01,28.8c1.548-3.159,1.016-6.8-1.461-10a10.45,10.45,0,0,0-6.323-2.314h0Z" transform="translate(-0.001)" fill="#313131" opacity="0.076"/>
</svg>
