<svg id="bell" xmlns="http://www.w3.org/2000/svg" width="17" height="20" viewBox="0 0 17 20">
  <path id="Shape" d="M8,18a2.27,2.27,0,0,1-2.285-2.25h4.569A2.27,2.27,0,0,1,8,18Zm6.854-3.375H1.147A1.129,1.129,0,0,1,0,13.5a1.085,1.085,0,0,1,.308-.763L.444,12.6c.69-.715,1.845-1.911,1.845-5.283A5.578,5.578,0,0,1,6.858,1.858V1.125a1.142,1.142,0,0,1,2.284,0v.733a5.578,5.578,0,0,1,4.569,5.455c0,3.374,1.156,4.57,1.846,5.284l.135.14A1.085,1.085,0,0,1,16,13.5,1.129,1.129,0,0,1,14.854,14.625Z" transform="translate(1 2)" fill="#fff"/>
</svg>
