<svg xmlns="http://www.w3.org/2000/svg" width="36.777" height="36.777" viewBox="0 0 36.777 36.777">
  <g id="Group_10" data-name="Group 10" transform="translate(-104.586 -70.578)">
    <path id="Rectangle_3" data-name="Rectangle 3" d="M11.6,23.7V12.5H.5a.5.5,0,1,1,0-1H11.6V.5A.5.5,0,0,1,12,.01a.5.5,0,0,1,.4.49v11H23.5a.5.5,0,1,1,0,1H12.4v11a.5.5,0,0,1-.5.5A.325.325,0,0,1,11.6,23.7ZM11.9,0h.2a.5.5,0,0,0-.1.01A.5.5,0,0,0,11.9,0Z" transform="translate(122.971 72) rotate(45)" fill="#dbcece" stroke="#dbd5d5" stroke-miterlimit="10" stroke-width="2"/>
  </g>
</svg>
