<svg id="check" xmlns="http://www.w3.org/2000/svg" width="32" height="24" viewBox="0 0 32 24">
  <g id="Path" transform="translate(0)" fill="#fff" stroke-miterlimit="10">
    <path d="M 12 23.50000381469727 C 11.70672035217285 23.50000381469727 11.43083953857422 23.38498306274414 11.22319984436035 23.17612457275391 L 0.8231800198554993 12.71629428863525 C 0.3926399946212769 12.28327369689941 0.3926500082015991 11.57866382598877 0.8231899738311768 11.14559364318848 L 3.085870027542114 8.869843482971191 C 3.293519973754883 8.660984039306641 3.569390058517456 8.545964241027832 3.862679958343506 8.545964241027832 C 4.155960083007813 8.545964241027832 4.431829929351807 8.660984039306641 4.639470100402832 8.869833946228027 L 11.64544010162354 15.91601371765137 L 12 16.27261352539063 L 12.35455989837646 15.91601371765137 L 27.36050987243652 0.8238438367843628 C 27.56814956665039 0.6150138378143311 27.84403038024902 0.5000038146972656 28.1373291015625 0.5000038146972656 C 28.43062019348145 0.5000038146972656 28.70649909973145 0.6150138378143311 28.91414070129395 0.8238438367843628 L 31.17682075500488 3.099593877792358 C 31.60736083984375 3.532623767852783 31.60736083984375 4.23724365234375 31.17680931091309 4.670313835144043 L 12.77680015563965 23.1761646270752 C 12.56916046142578 23.38499450683594 12.29327964782715 23.50000381469727 12 23.50000381469727 Z" stroke="none"/>
    <path d="M 12 23.00000381469727 C 12.15919017791748 23.00000381469727 12.30914974212646 22.93735313415527 12.42224025726318 22.82362365722656 L 30.82221984863281 4.317793846130371 C 31.05950927734375 4.079113960266113 31.05953025817871 3.690773725509644 30.82225036621094 3.452133893966675 L 28.55956077575684 1.176373839378357 C 28.44647979736328 1.062643766403198 28.29652976989746 1.000003814697266 28.1373291015625 1.000003814697266 C 27.97813034057617 1.000003814697266 27.82817077636719 1.062643766403198 27.71508026123047 1.176383852958679 L 12.70913028717041 16.2685546875 L 12 16.98175430297852 L 11.29086971282959 16.2685546875 L 4.2848801612854 9.222353935241699 C 4.171800136566162 9.108603477478027 4.021860122680664 9.045964241027832 3.862679958343506 9.045964241027832 C 3.703500032424927 9.045964241027832 3.553550004959106 9.108613967895508 3.440439939498901 9.222383499145508 L 1.177780032157898 11.49811363220215 C 0.9404900074005127 11.73679351806641 0.9404699802398682 12.12512397766113 1.177739977836609 12.36375427246094 L 11.57779026031494 22.82360458374023 C 11.69087982177734 22.93735313415527 11.8408203125 23.00000381469727 12 23.00000381469727 M 12.00000190734863 24.00000381469727 C 11.59047412872314 24.00000381469727 11.18106269836426 23.84291648864746 10.86861991882324 23.52864456176758 L 0.4686099886894226 13.06883335113525 C -0.1562000066041946 12.4404239654541 -0.1562000066041946 11.42154407501221 0.4686099886894226 10.7930736541748 L 2.731300115585327 8.517313957214355 C 3.043704986572266 8.203079223632813 3.453190088272095 8.045961380004883 3.862674951553345 8.045961380004883 C 4.272160053253174 8.045961380004883 4.681644916534424 8.203079223632813 4.994050025939941 8.517313957214355 L 12 15.56347370147705 L 27.00595092773438 0.4713038206100464 C 27.31835556030273 0.1571038216352463 27.72784042358398 3.814697265625e-06 28.13732528686523 3.814697265625e-06 C 28.54681015014648 3.814697265625e-06 28.95629501342773 0.1571038216352463 29.26869964599609 0.4713038206100464 L 31.5313892364502 2.747063875198364 C 32.15620040893555 3.375473737716675 32.15620040893555 4.394363880157471 31.5313892364502 5.022833824157715 L 13.13136959075928 23.5287036895752 C 12.81897354125977 23.84287071228027 12.4094295501709 24.00000381469727 12.00000190734863 24.00000381469727 Z" stroke="none" fill="#9599b4"/>
  </g>
</svg>
