<svg xmlns="http://www.w3.org/2000/svg" width="28" height="22" viewBox="0 0 28 22">
  <g id="comments" transform="translate(0)">
    <path id="Shape" d="M26.88,22a11.122,11.122,0,0,1-6.086-1.905,12.793,12.793,0,0,1-2.906.334c-4.069,0-7.719-1.885-9.3-4.8a13.582,13.582,0,0,1-1.381-.24,11.142,11.142,0,0,1-6.085,1.905A1.115,1.115,0,0,1,.093,16.6a1.138,1.138,0,0,1,.214-1.228,12.763,12.763,0,0,0,1.832-2.7A6.771,6.771,0,0,1,0,7.857C0,3.525,4.536,0,10.111,0c4.079,0,7.738,1.891,9.322,4.818a11.165,11.165,0,0,1,6.1,2.621A6.917,6.917,0,0,1,28,12.571a6.752,6.752,0,0,1-2.139,4.822A12.846,12.846,0,0,0,27.7,20.084a1.155,1.155,0,0,1,.214,1.229A1.126,1.126,0,0,1,26.88,22Zm-5.258-4.622h0l.821.554A9.659,9.659,0,0,0,24.515,19c-.143-.26-.272-.509-.384-.739l-.745-1.553,1.187-1.219A4.66,4.66,0,0,0,26,12.293C26,9.922,23.773,7.746,20.584,7l.008.093c.012.132.025.268.025.406a7.126,7.126,0,0,1-2.483,5.265A10.934,10.934,0,0,1,12,15.4a8.769,8.769,0,0,0,6.311,2.482,10.1,10.1,0,0,0,2.354-.28l.956-.229ZM9.5,3C5.435,3,2,5.5,2,8.455a4.548,4.548,0,0,0,1.392,3.117l1.163,1.193-.727,1.515c-.118.24-.244.483-.374.721a9.451,9.451,0,0,0,2.02-1.042l.8-.541.928.22a9.864,9.864,0,0,0,2.3.273c4.065,0,7.5-2.5,7.5-5.455S13.566,3,9.5,3Z" fill="#fff"/>
  </g>
</svg>
