<svg id="file-upload" xmlns="http://www.w3.org/2000/svg" width="18" height="24" viewBox="0 0 18 24">
  <path id="Shape" d="M16.875,24H1.125A1.126,1.126,0,0,1,0,22.875V1.125A1.126,1.126,0,0,1,1.125,0H10.5V6.375A1.126,1.126,0,0,0,11.625,7.5H18V22.875A1.126,1.126,0,0,1,16.875,24ZM9,10.5a.8.8,0,0,0-.563.232L3.917,15.218A.75.75,0,0,0,4.445,16.5H7.5v3.75A.751.751,0,0,0,8.25,21h1.5a.751.751,0,0,0,.751-.75V16.5h3.055a.75.75,0,0,0,.527-1.283L9.563,10.732A.8.8,0,0,0,9,10.5ZM18,6H12V0h.286a1.115,1.115,0,0,1,.8.329l4.589,4.594A1.125,1.125,0,0,1,18,5.714V6Z" fill="#211832"/>
</svg>
