<svg id="idea" xmlns="http://www.w3.org/2000/svg" xmlns:xlink="http://www.w3.org/1999/xlink" width="20" height="19" viewBox="0 0 20 19">
  <defs>
    <linearGradient id="linear-gradient" x1="0.285" y1="0.937" x2="0.715" y2="0.067" gradientUnits="objectBoundingBox">
      <stop offset="0" stop-color="#ff39aa"/>
      <stop offset="1" stop-color="#ce56ec"/>
    </linearGradient>
    <linearGradient id="linear-gradient-2" x1="0.16" y1="1.176" x2="0.825" y2="-0.172" xlink:href="#linear-gradient"/>
    <linearGradient id="linear-gradient-3" x1="-0.01" y1="0.91" x2="1.01" y2="0.09" xlink:href="#linear-gradient"/>
    <linearGradient id="linear-gradient-4" x1="0.163" y1="1.183" x2="0.837" y2="-0.179" xlink:href="#linear-gradient"/>
    <linearGradient id="linear-gradient-5" x1="0.285" y1="0.935" x2="0.715" y2="0.061" xlink:href="#linear-gradient"/>
    <linearGradient id="linear-gradient-6" x1="0.313" y1="0.646" x2="0.683" y2="0.35" xlink:href="#linear-gradient"/>
    <linearGradient id="linear-gradient-7" x1="0.135" y1="0.771" x2="0.865" y2="-0.048" xlink:href="#linear-gradient"/>
    <linearGradient id="linear-gradient-8" x1="0.108" y1="0.928" x2="0.892" y2="0.183" xlink:href="#linear-gradient"/>
    <linearGradient id="linear-gradient-9" x1="0.052" y1="0.926" x2="0.959" y2="0.191" xlink:href="#linear-gradient"/>
    <linearGradient id="linear-gradient-10" x1="0.056" y1="0.938" x2="0.813" y2="0.028" xlink:href="#linear-gradient"/>
    <linearGradient id="linear-gradient-11" x1="0.308" y1="0.795" x2="0.817" y2="0.176" xlink:href="#linear-gradient"/>
    <linearGradient id="linear-gradient-12" x1="0.175" y1="0.819" x2="0.817" y2="0.298" xlink:href="#linear-gradient"/>
    <linearGradient id="linear-gradient-13" x1="0.308" y1="0.784" x2="0.816" y2="0.179" xlink:href="#linear-gradient"/>
    <linearGradient id="linear-gradient-14" x1="0.061" y1="0.942" x2="0.812" y2="0.03" xlink:href="#linear-gradient"/>
  </defs>
  <path id="Path" d="M2.74.505.492.012A.519.519,0,0,0,.124.065.211.211,0,0,0,.008.307.322.322,0,0,0,.26.495L2.508.987A.528.528,0,0,0,2.624,1,.362.362,0,0,0,3,.786C3.024.663,2.916.544,2.74.505Z" transform="translate(17 9)" fill="url(#linear-gradient)"/>
  <path id="Path-2" data-name="Path" d="M.369,1A.519.519,0,0,0,.483.984L2.7.5A.345.345,0,0,0,2.988.313.21.21,0,0,0,2.866.058.518.518,0,0,0,2.473.023L.257.511C.083.549-.024.666,0,.788A.357.357,0,0,0,.371,1Z" transform="translate(17 4)" fill="url(#linear-gradient-2)"/>
  <path id="Path-3" data-name="Path" d="M1.855.054A.418.418,0,0,0,1.594,0a.371.371,0,0,0-.229.113L.067,1.552a.249.249,0,0,0,.078.394.409.409,0,0,0,.491-.063L1.933.448A.241.241,0,0,0,2,.238.281.281,0,0,0,1.855.054Z" transform="translate(15)" fill="url(#linear-gradient-3)"/>
  <path id="Path-4" data-name="Path" d="M2.507.015.26.505C.084.544-.024.663,0,.786A.362.362,0,0,0,.376,1,.528.528,0,0,0,.492.987L2.74.5c.2-.043.305-.187.241-.32A.434.434,0,0,0,2.507.013Z" transform="translate(0 9)" fill="url(#linear-gradient-4)"/>
  <path id="Path-5" data-name="Path" d="M2.74.5.492.012A.433.433,0,0,0,.018.176C-.046.31.063.453.26.5l2.247.49A.535.535,0,0,0,2.624,1,.362.362,0,0,0,3,.785C3.024.661,2.916.542,2.74.5Z" transform="translate(0 4)" fill="url(#linear-gradient-5)"/>
  <path id="Path-6" data-name="Path" d="M1.359,1.875A.386.386,0,0,0,1.682,2a.353.353,0,0,0,.289-.169.237.237,0,0,0-.046-.285L.633.116A.408.408,0,0,0,.144.054.247.247,0,0,0,.067.447Z" transform="translate(3)" fill="url(#linear-gradient-6)"/>
  <path id="Shape" d="M3.975,5h-.95a.615.615,0,0,1-.651-.472l-.063-.515H1.6A1.016,1.016,0,0,1,.5,3.128a.734.734,0,0,1,.085-.339.929.929,0,0,1-.562-.608A.757.757,0,0,1,.25,1.446.751.751,0,0,1,.106.506,1.157,1.157,0,0,1,1.1,0H5.9a1.155,1.155,0,0,1,1,.507.749.749,0,0,1-.145.94.758.758,0,0,1,.229.734.927.927,0,0,1-.562.608.731.731,0,0,1,.086.339,1.017,1.017,0,0,1-1.1.886H4.689l-.065.515A.612.612,0,0,1,3.975,5ZM3.13,4.014l.041.336h.661l.045-.336ZM1.6,2.893a.265.265,0,0,0-.275.235.266.266,0,0,0,.275.236H5.4a.267.267,0,0,0,.276-.236A.265.265,0,0,0,5.4,2.893h-.6a.372.372,0,0,1-.405-.326.372.372,0,0,1,.405-.325h1.1a.27.27,0,0,0,.293-.236.269.269,0,0,0-.293-.235h-.9a.373.373,0,0,1-.406-.325.373.373,0,0,1,.406-.326h.9A.269.269,0,0,0,6.19.886.269.269,0,0,0,5.9.651H1.1A.269.269,0,0,0,.811.886a.269.269,0,0,0,.293.235H2.8a.373.373,0,0,1,.406.326.373.373,0,0,1-.406.325H1.1a.269.269,0,0,0-.293.235.27.27,0,0,0,.293.236H3.4a.372.372,0,0,1,.4.325.372.372,0,0,1-.4.326Z" transform="translate(7 14)" fill="url(#linear-gradient-7)"/>
  <path id="Shape-2" data-name="Shape" d="M4.427,12H4.378a2.583,2.583,0,0,1-1.851-.793h-.1a2.387,2.387,0,0,1-1.847-.836,1.8,1.8,0,0,1-.3-1.8A2.067,2.067,0,0,1,.406,8.3,1.2,1.2,0,0,1,0,7.406a1.241,1.241,0,0,1,.468-.947,1.652,1.652,0,0,1-.2-1.538A1.967,1.967,0,0,1,1.481,3.794a1.446,1.446,0,0,1-.018-1.56A1.873,1.873,0,0,1,2.95,1.379c.059,0,.119,0,.176,0A1.766,1.766,0,0,1,4.549.046,2.157,2.157,0,0,1,4.986,0,1.994,1.994,0,0,1,6.5.669,1.993,1.993,0,0,1,8.015,0a2.152,2.152,0,0,1,.437.045A1.762,1.762,0,0,1,9.874,1.373l.089,0,.088,0a1.934,1.934,0,0,1,1.337.652,1.489,1.489,0,0,1,.359,1.1,1.469,1.469,0,0,1-.229.662A1.857,1.857,0,0,1,12.836,5.5a1.665,1.665,0,0,1-.3.956A1.241,1.241,0,0,1,13,7.4a1.2,1.2,0,0,1-.407.893,1.8,1.8,0,0,1-.172,2.072,2.387,2.387,0,0,1-1.847.836h-.1a2.319,2.319,0,0,1-.278.255A2.642,2.642,0,0,1,8.574,12H8.56A2.529,2.529,0,0,1,6.5,10.99a2.235,2.235,0,0,1-.237.283A2.611,2.611,0,0,1,4.427,12ZM2.389,9.188a.41.41,0,0,1,.245.08.31.31,0,0,1,.126.316,1.4,1.4,0,0,0,.655,1.457,1.841,1.841,0,0,0,1.013.3,1.9,1.9,0,0,0,.765-.16,1.471,1.471,0,0,0,.93-1.337V1.663A1.064,1.064,0,0,0,5.069.671l-.083,0a1.1,1.1,0,0,0-1.121.852,1.8,1.8,0,0,1,.73.519.3.3,0,0,1,.047.333.378.378,0,0,1-.309.2l-.04,0a.394.394,0,0,1-.308-.141,1.08,1.08,0,0,0-.5-.333h-.01a.4.4,0,0,1-.2-.05A1.246,1.246,0,0,0,3.1,2.035c-.031,0-.061,0-.092,0a1.1,1.1,0,0,0-.936.612.881.881,0,0,0,.221,1.005,2.023,2.023,0,0,1,.276.019.374.374,0,0,1,.312.2.3.3,0,0,1-.055.338.4.4,0,0,1-.293.122.47.47,0,0,1-.072-.006,1.636,1.636,0,0,0-.2-.013A1.276,1.276,0,0,0,.917,5.5,1.276,1.276,0,0,0,2.266,6.684a.334.334,0,1,1,0,.663,2.292,2.292,0,0,1-1.3-.392A.6.6,0,0,0,.755,7.4a.621.621,0,0,0,.342.539.308.308,0,0,1,.145.416l-.011.02c-.007.009-.011.014-.011.02l-.009.008,0,.006a.019.019,0,0,0-.006.012A1.2,1.2,0,0,0,.98,9.61a1.441,1.441,0,0,0,.956.859c.062.018.113.031.159.04a1.906,1.906,0,0,1-.079-1.041.346.346,0,0,1,.242-.259A.42.42,0,0,1,2.389,9.188ZM8.012.663l-.081,0a1.063,1.063,0,0,0-1.053,1V9.841a1.472,1.472,0,0,0,.932,1.332,1.9,1.9,0,0,0,.763.159,1.84,1.84,0,0,0,1.011-.294,1.4,1.4,0,0,0,.658-1.452.3.3,0,0,1,.049-.231.382.382,0,0,1,.256-.154.438.438,0,0,1,.066-.005.369.369,0,0,1,.373.274,1.9,1.9,0,0,1-.081,1.041,1.61,1.61,0,0,0,.159-.04,1.435,1.435,0,0,0,.957-.859,1.2,1.2,0,0,0-.22-1.185l-.012-.018L11.781,8.4a.1.1,0,0,1-.013-.021l-.011-.018a.311.311,0,0,1,.145-.417l0,0a.627.627,0,0,0,.34-.466.583.583,0,0,0-.212-.521,2.283,2.283,0,0,1-1.286.392h-.009a.334.334,0,1,1,0-.662,1.466,1.466,0,0,0,.831-.252A1.1,1.1,0,0,0,12,5.123a1.346,1.346,0,0,0-1.273-.8,1.6,1.6,0,0,0-.2.012.433.433,0,0,1-.073.006.4.4,0,0,1-.293-.122.3.3,0,0,1-.055-.337.374.374,0,0,1,.312-.2,2.352,2.352,0,0,1,.276-.019.9.9,0,0,0,.291-.579.883.883,0,0,0-.256-.7,1.149,1.149,0,0,0-.749-.338q-.043,0-.085,0a1.212,1.212,0,0,0-.183.014.432.432,0,0,1-.2.049H9.513a1.085,1.085,0,0,0-.5.334.4.4,0,0,1-.3.13A.41.41,0,0,1,8.489,2.5a.327.327,0,0,1-.152-.221A.3.3,0,0,1,8.4,2.047a1.841,1.841,0,0,1,.734-.526A1.1,1.1,0,0,0,8.012.663Z" transform="translate(4 1)" fill="url(#linear-gradient-8)"/>
  <path id="Path-7" data-name="Path" d="M.651,2a1.378,1.378,0,0,0,1.255-.693.954.954,0,0,0-.335-1.2A.506.506,0,0,0,1.139.014.394.394,0,0,0,.834.278.317.317,0,0,0,.979.621a.338.338,0,0,1,.09.468.529.529,0,0,1-.534.194.448.448,0,0,0-.524.26.356.356,0,0,0,.322.424A1.683,1.683,0,0,0,.651,2Z" transform="translate(11 4)" fill="url(#linear-gradient-9)"/>
  <path id="Path-8" data-name="Path" d="M1.907.932A.429.429,0,0,0,2,.655.425.425,0,0,0,1.9.381.981.981,0,0,0,.543.193a1.479,1.479,0,0,0-.5,1.53A.334.334,0,0,0,.353,2a.26.26,0,0,0,.092-.015.4.4,0,0,0,.218-.477A.632.632,0,0,1,.875.853a.419.419,0,0,1,.58.081.284.284,0,0,0,.452,0Z" transform="translate(12 7)" fill="url(#linear-gradient-10)"/>
  <path id="Path-9" data-name="Path" d="M1.3.1A.974.974,0,0,0,.093.4.456.456,0,0,0,.1.958a.284.284,0,0,0,.457,0A.409.409,0,0,1,1.12.862a.629.629,0,0,1,.22.642.465.465,0,0,0,.031.3.337.337,0,0,0,.2.183A.254.254,0,0,0,1.651,2a.34.34,0,0,0,.31-.29A1.444,1.444,0,0,0,1.3.1Z" transform="translate(11 10)" fill="url(#linear-gradient-11)"/>
  <path id="Path-10" data-name="Path" d="M1.465,1.281a.527.527,0,0,1-.535-.2.339.339,0,0,1,.1-.469.315.315,0,0,0,.136-.34A.394.394,0,0,0,.86.014.507.507,0,0,0,.432.1a.958.958,0,0,0-.339,1.2A1.377,1.377,0,0,0,1.353,2a1.678,1.678,0,0,0,.314-.03.408.408,0,0,0,.315-.242.307.307,0,0,0-.1-.343.5.5,0,0,0-.416-.1Z" transform="translate(7 4)" fill="url(#linear-gradient-12)"/>
  <path id="Path-11" data-name="Path" d="M1.333,1.509A.45.45,0,0,0,1.36,1.8a.339.339,0,0,0,.193.183A.254.254,0,0,0,1.645,2a.335.335,0,0,0,.309-.277,1.47,1.47,0,0,0-.5-1.531A.991.991,0,0,0,.087.385a.44.44,0,0,0,0,.532A.286.286,0,0,0,.537.934.423.423,0,0,1,1.119.855a.628.628,0,0,1,.213.651Z" transform="translate(6 7)" fill="url(#linear-gradient-13)"/>
  <path id="Path-12" data-name="Path" d="M.7.1A1.445,1.445,0,0,0,.039,1.71.34.34,0,0,0,.35,2a.245.245,0,0,0,.084-.015A.339.339,0,0,0,.63,1.8a.467.467,0,0,0,.032-.3A.627.627,0,0,1,.881.865a.409.409,0,0,1,.565.09.287.287,0,0,0,.312.1.364.364,0,0,0,.23-.276A.454.454,0,0,0,1.907.4.975.975,0,0,0,.7.1Z" transform="translate(7 10)" fill="url(#linear-gradient-14)"/>
</svg>
