<svg xmlns="http://www.w3.org/2000/svg" width="22" height="22" viewBox="0 0 22 22">
  <path id="Shape" d="M11,22a2.062,2.062,0,1,1,2.063-2.062A2.064,2.064,0,0,1,11,22Zm6.32-2.617a2.062,2.062,0,1,1,2.063-2.063A2.065,2.065,0,0,1,17.32,19.382Zm-12.64,0A2.062,2.062,0,1,1,6.743,17.32,2.065,2.065,0,0,1,4.68,19.382Zm15.258-6.32A2.062,2.062,0,1,1,22,11,2.065,2.065,0,0,1,19.938,13.063Zm-17.875,0A2.062,2.062,0,1,1,4.125,11,2.065,2.065,0,0,1,2.063,13.063ZM4.68,6.743A2.062,2.062,0,1,1,6.743,4.68,2.065,2.065,0,0,1,4.68,6.743ZM11,4.125a2.062,2.062,0,1,1,2.063-2.062A2.064,2.064,0,0,1,11,4.125Z" transform="translate(0)" fill="#fff"/>
</svg>
