<svg id="Group_3" data-name="Group 3" xmlns="http://www.w3.org/2000/svg" width="34" height="34" viewBox="0 0 34 34">
  <circle id="Oval" cx="17" cy="17" r="17" fill="#fff"/>
  <g id="user-alt" transform="translate(9 8)">
    <path id="Shape" d="M14.5,18H1.5A1.6,1.6,0,0,1,0,16.313V15.75a4.277,4.277,0,0,1,4-4.5H5.722a4.894,4.894,0,0,0,4.556,0H12a4.277,4.277,0,0,1,4,4.5v.563A1.6,1.6,0,0,1,14.5,18ZM8,10.125A4.812,4.812,0,0,1,3.5,5.063,4.812,4.812,0,0,1,8,0a4.812,4.812,0,0,1,4.5,5.063A4.812,4.812,0,0,1,8,10.125Z" fill="#313131"/>
  </g>
</svg>
